<?xml version="1.0" encoding="utf-8"?>
<!-- Generator: Adobe Illustrator 17.1.0, SVG Export Plug-In . SVG Version: 6.00 Build 0)  -->
<!DOCTYPE svg PUBLIC "-//W3C//DTD SVG 1.1//EN" "http://www.w3.org/Graphics/SVG/1.1/DTD/svg11.dtd">
<svg version="1.1" id="DE" xmlns="http://www.w3.org/2000/svg" xmlns:xlink="http://www.w3.org/1999/xlink" x="0px" y="0px"
	 width="110.095px" height="34.016px" viewBox="0 0 110.095 34.016" enable-background="new 0 0 110.095 34.016"
	 xml:space="preserve">
<path d="M99.85,0H9.08l-1,0A14.32,14.32,0,0,0,5.93.21a7.08,7.08,0,0,0-2,.67A6.83,6.83,0,0,0,2.15,2.15,7,7,0,0,0,.88,3.89,7.36,7.36,0,0,0,.21,5.94,14.08,14.08,0,0,0,0,8.09c0,.33,0,.66,0,1V24.94c0,.33,0,.66,0,1a14.08,14.08,0,0,0,.19,2.15,7.36,7.36,0,0,0,.67,2.05,7,7,0,0,0,1.27,1.74,6.83,6.83,0,0,0,1.74,1.27,7.29,7.29,0,0,0,2,.67A14.32,14.32,0,0,0,8.09,34H102a14.08,14.08,0,0,0,2.15-.19,7.47,7.47,0,0,0,2-.67,6.83,6.83,0,0,0,1.74-1.27,6.88,6.88,0,0,0,1.94-3.79,15.48,15.48,0,0,0,.2-2.15v-1c0-.39,0-.78,0-1.18V10.25c0-.39,0-.78,0-1.17v-1a15.48,15.48,0,0,0-.2-2.15,6.88,6.88,0,0,0-1.94-3.79A6.83,6.83,0,0,0,106.2.88a7.14,7.14,0,0,0-2-.67A14.08,14.08,0,0,0,102,0l-1,0Z" fill="#a6a6a6"/><path d="M99.85.66H102A14.74,14.74,0,0,1,104,.86a6.77,6.77,0,0,1,1.86.61,6.11,6.11,0,0,1,1.57,1.15,6.35,6.35,0,0,1,1.15,1.57,6.73,6.73,0,0,1,.61,1.87,12.53,12.53,0,0,1,.18,2c0,.33,0,.66,0,1s0,.77,0,1.15V23.76c0,.4,0,.78,0,1.18s0,.65,0,1a12.76,12.76,0,0,1-.18,2.06,6.45,6.45,0,0,1-.61,1.86,6.35,6.35,0,0,1-1.15,1.57,5.91,5.91,0,0,1-1.57,1.14,6.9,6.9,0,0,1-1.86.62,15.53,15.53,0,0,1-2.05.18H8.11a15.53,15.53,0,0,1-2.06-.18,6.9,6.9,0,0,1-1.86-.62,5.88,5.88,0,0,1-1.57-1.15,6.12,6.12,0,0,1-1.15-1.56A6.84,6.84,0,0,1,.86,28a14.73,14.73,0,0,1-.18-2.05c0-.23,0-.46,0-.69V8.79c0-.23,0-.45,0-.68A13.69,13.69,0,0,1,.87,6.05a6.56,6.56,0,0,1,.61-1.86A5.91,5.91,0,0,1,2.62,2.62,6.28,6.28,0,0,1,4.19,1.47,6.77,6.77,0,0,1,6.05.86,14.73,14.73,0,0,1,8.1.68H99.85" fill="#fff"/><path d="M38.3,14.41V11.65H35v2.76h-.76V8.36H35V11H38.3V8.36h.76v6.05Z"/><path d="M40.38,8.47a.51.51,0,1,1,.5.5A.51.51,0,0,1,40.38,8.47Zm.14,1.42h.73v4.52h-.73Z"/><path d="M42.62,9.89h.69v.71h.07a1.63,1.63,0,0,1,3,.88v2.93h-.72V11.66c0-.82-.35-1.2-1.07-1.2a1.17,1.17,0,0,0-1.27,1.27v2.68h-.72V9.89Z"/><path d="M47.61,13.88l2.61-3.32v-.07h-2.6v-.6h3.46v.54l-2.6,3.31v.07h2.61v.6H47.61Z"/><path d="M56.09,14.41H55.4V13.7h-.07a1.46,1.46,0,0,1-1.44.79,1.47,1.47,0,0,1-1.58-1.67V9.89H53v2.75c0,.81.34,1.19,1.06,1.19a1.17,1.17,0,0,0,1.28-1.26V9.89h.72v4.52Z"/><path d="M57.88,10.49h-.76v-.6h.76V9.45c0-.93.48-1.31,1.35-1.31a2.57,2.57,0,0,1,.45,0v.6a2.27,2.27,0,0,0-.41,0c-.43,0-.67.22-.67.73v.42h1v.6h-1v3.92h-.73V10.49Z"/><path d="M64.42,14.41h-.68V13.7h-.07a1.63,1.63,0,0,1-3-.88V9.89h.72v2.75c0,.81.35,1.19,1.07,1.19a1.16,1.16,0,0,0,1.27-1.26V9.89h.72ZM61.2,8.75a.51.51,0,1,1,.51.51A.51.51,0,0,1,61.2,8.75Zm1.7,0a.51.51,0,1,1,1,0,.51.51,0,0,1-.51.51A.5.5,0,0,1,62.9,8.75Z"/><path d="M65.77,14.91h.77c.08.37.48.61,1.13.61.81,0,1.29-.4,1.29-1.07v-.89h-.07a1.55,1.55,0,0,1-1.41.78c-1.17,0-1.9-.9-1.9-2.26s.73-2.27,1.9-2.27a1.63,1.63,0,0,1,1.45.79H69V9.89h.68v4.6c0,1-.78,1.66-2,1.66S65.88,15.66,65.77,14.91Zm1.87-4.45c-.84,0-1.31.64-1.31,1.62s.47,1.63,1.31,1.63S69,13.07,69,12.08,68.47,10.46,67.64,10.46Z"/><path d="M74.76,13.24a1.81,1.81,0,0,1-1.91,1.25,2.06,2.06,0,0,1-2-2.34,2.07,2.07,0,0,1,2-2.34c1.22,0,2,.87,2,2.27v.28H71.57v0c0,.9.53,1.46,1.3,1.46A1.18,1.18,0,0,0,74,13.24Zm-3.19-1.46h2.49a1.22,1.22,0,0,0-1.21-1.33A1.28,1.28,0,0,0,71.57,11.78Z"/><path d="M76,9.89h.69v.71h.06a1.63,1.63,0,0,1,3,.88v2.93H79V11.66c0-.82-.35-1.2-1.07-1.2a1.17,1.17,0,0,0-1.27,1.27v2.68H76V9.89Z"/><path d="M83.36,13.88,86,10.56v-.07h-2.6v-.6h3.46v.54l-2.59,3.31v.07h2.61v.6H83.36Z"/><path d="M91.84,14.41h-.69V13.7h-.06a1.63,1.63,0,0,1-3-.88V9.89h.72v2.75c0,.81.34,1.19,1.07,1.19a1.16,1.16,0,0,0,1.27-1.26V9.89h.72v4.52Z"/><path d="M34.22,26V17.58h1.05v4.08h0L39,17.58h1.31L36.9,21.29,40.64,26H39.31L36.17,22l-.9,1V26Z"/><path d="M41,24.24c0-1,.79-1.68,2.18-1.76l1.73-.1v-.5c0-.74-.49-1.18-1.32-1.18a1.26,1.26,0,0,0-1.39,1h-1a2.13,2.13,0,0,1,2.39-1.85c1.42,0,2.31.77,2.31,2V26h-1v-1h0A2.21,2.21,0,0,1,43,26.05,1.8,1.8,0,0,1,41,24.24Zm3.91-.58v-.5l-1.61.1c-.81.06-1.28.41-1.28,1s.48,1,1.21,1A1.58,1.58,0,0,0,44.86,23.66Z"/><path d="M47.2,17.58h1V26h-1Z"/><path d="M54.56,24.22a2.4,2.4,0,0,1-2.51,1.83c-1.73,0-2.78-1.2-2.78-3.09s1.07-3.15,2.73-3.15,2.63,1.19,2.63,3v.39H50.31v.05a1.73,1.73,0,0,0,1.76,1.92,1.46,1.46,0,0,0,1.5-1Zm-4.25-1.8h3.28A1.62,1.62,0,0,0,52,20.69,1.7,1.7,0,0,0,50.31,22.42Z"/><path d="M55.64,19.92h1v1h0a2,2,0,0,1,1.92-1.07A2,2,0,0,1,60.61,22V26h-1V22.21c0-1-.46-1.5-1.39-1.5a1.54,1.54,0,0,0-1.57,1.69V26h-1Z"/><path d="M61.59,22.93c0-1.89,1-3.12,2.56-3.12a2.13,2.13,0,0,1,1.92,1.09h0V17.58h1V26h-1v-1h0a2.17,2.17,0,0,1-2,1.12C62.64,26.05,61.59,24.82,61.59,22.93Zm1,0c0,1.37.67,2.24,1.73,2.24s1.74-.89,1.74-2.24-.7-2.23-1.74-2.23S62.63,21.57,62.63,22.93Z"/><path d="M73.45,24.22a2.4,2.4,0,0,1-2.51,1.83c-1.73,0-2.78-1.2-2.78-3.09s1.07-3.15,2.73-3.15,2.63,1.19,2.63,3v.39H69.2v.05A1.73,1.73,0,0,0,71,25.18a1.46,1.46,0,0,0,1.5-1Zm-4.25-1.8h3.28a1.61,1.61,0,0,0-1.61-1.73A1.7,1.7,0,0,0,69.2,22.42Z"/><path d="M74.53,19.92h1v1h0A1.47,1.47,0,0,1,77,19.81a2.78,2.78,0,0,1,.4,0v1a2,2,0,0,0-.54,0,1.27,1.27,0,0,0-1.29,1.41V26h-1Z"/><path d="M26.31,12.57V23.05a3.17,3.17,0,0,1-3.16,3.16H11.22a3.17,3.17,0,0,1-3.16-3.16V12.57H26.31m.5-.5H7.56v11a3.66,3.66,0,0,0,3.66,3.66H23.15a3.66,3.66,0,0,0,3.66-3.66v-11Z"/><path d="M26.81,13V10.93a3.66,3.66,0,0,0-3.66-3.66H11.22a3.66,3.66,0,0,0-3.66,3.66V13Z" fill="#d80000"/><circle cx="17.18" cy="14.87" r="0.78" fill="#a6a6a6"/><circle cx="19.45" cy="14.87" r="0.78" fill="#a6a6a6"/><circle cx="21.72" cy="14.87" r="0.78" fill="#a6a6a6"/><circle cx="23.99" cy="14.87" r="0.78" fill="#a6a6a6"/><circle cx="10.37" cy="17.13" r="0.78" fill="#a6a6a6"/><circle cx="12.64" cy="17.13" r="0.78" fill="#a6a6a6"/><circle cx="14.91" cy="17.13" r="0.78" fill="#a6a6a6"/><circle cx="17.18" cy="17.13" r="0.78" fill="#a6a6a6"/><circle cx="19.45" cy="17.13" r="0.78" fill="#a6a6a6"/><circle cx="21.72" cy="17.13" r="0.78" fill="#a6a6a6"/><circle cx="23.99" cy="17.13" r="0.78" fill="#a6a6a6"/><circle cx="10.37" cy="19.39" r="0.78" fill="#a6a6a6"/><circle cx="12.64" cy="19.39" r="0.78" fill="#a6a6a6"/><circle cx="14.91" cy="19.39" r="0.78" fill="#a6a6a6"/><circle cx="17.18" cy="19.39" r="0.78" fill="#a6a6a6"/><circle cx="19.45" cy="19.39" r="0.78" fill="#a6a6a6"/><circle cx="21.72" cy="19.39" r="0.78" fill="#a6a6a6"/><circle cx="23.99" cy="19.39" r="0.78" fill="#a6a6a6"/><circle cx="10.37" cy="21.65" r="0.78" fill="#a6a6a6"/><circle cx="12.64" cy="21.65" r="0.78" fill="#a6a6a6"/><circle cx="14.91" cy="21.65" r="0.78" fill="#a6a6a6"/><circle cx="17.18" cy="21.65" r="0.78" fill="#a6a6a6"/><circle cx="19.45" cy="21.65" r="0.78" fill="#a6a6a6"/><circle cx="21.72" cy="21.65" r="0.78" fill="#a6a6a6"/><circle cx="23.99" cy="21.65" r="0.78" fill="#a6a6a6"/><circle cx="10.37" cy="23.91" r="0.78" fill="#a6a6a6"/><circle cx="12.64" cy="23.91" r="0.78" fill="#a6a6a6"/><circle cx="14.91" cy="23.91" r="0.78" fill="#a6a6a6"/><circle cx="17.18" cy="23.91" r="0.78" fill="#a6a6a6"/><circle cx="19.45" cy="23.91" r="0.78" fill="#a6a6a6"/></svg>