<svg id="b26889b4-3efb-4bab-9021-aadd1b76a3b1" data-name="Layer 1" xmlns="http://www.w3.org/2000/svg" viewBox="0 0 2508.6 850"><path d="M0,0V850H850V0ZM661.3,674.5H486.5l-142.4-166v166H203.2v-499H344.3V339.4L475.4,175.5H644.2V184L441.8,420,661.3,665.8v8.7Z" fill="#fff"/><path d="M1195.1,2.4,1070.5,142.2l134.4,147.7v3.2h-65L1022.8,163.5V293.1H970V0h52.9V124L1129.4,0h65.7V2.4Z" fill="#fff"/><path d="M1464.7.8V169.1c0,86.9-50.6,131.1-120.9,131.1-67.2,0-124.6-42.7-124.6-131.1V1.6h52.1V169.1c0,52.9,28.7,80.6,72.5,80.6s68.7-30.8,68.7-80.6V1.6h52.1V.8Z" fill="#fff"/><path d="M1569.7.8V242.5H1714v50.6H1517.6V0h52.1Z" fill="#fff"/><path d="M1781.2,50.6h-88.4V.8h230.4V50.6h-88.4V293.1H1782l-.8-242.5Z" fill="#fff"/><path d="M2208.7.8V169.1c0,86.9-50.6,131.1-120.9,131.1-67.2,0-124.6-42.7-124.6-131.1V1.6h52.1V169.1c0,52.9,28.7,80.6,72.5,80.6s68.7-30.8,68.7-80.6V1.6h52.1V.8Z" fill="#fff"/><path d="M2508.6,293.9h-62.7l-81.6-98h-50.6v98h-52.9V.8c44.6,0,88.4.8,132.9.8,65.7.8,100.5,46.6,100.5,97.2,0,40.3-17.4,80.6-71,91.6l84.6,100.3.8,3.2ZM2313.7,52.1v94h80.1c33.2,0,47.6-23.7,47.6-46.6,0-23.7-15.1-46.6-47.6-46.6l-80.1-.8Z" fill="#fff"/><path d="M1095.4,385.5c-6.8-11.1-24.2-21.3-43.8-21.3-25.7,0-38.5,11.1-38.5,26.1,0,17.4,18.9,21.3,41.5,24.5,38.5,4.7,74.8,15.8,74.8,62.4,0,43.4-36.3,62.4-77.8,62.4-37.8,0-67.2-11.8-80.8-48.2l29.5-15.8c8.3,21.3,29.5,30.8,52.1,30.8,21.9,0,43.1-7.9,43.1-29.2,0-18.2-18.1-26.1-43.1-28.4-37.8-4.7-72.5-15-72.5-59.2,0-40.3,37.8-56.1,71.8-56.9,28.7,0,58.9,8.7,72.5,38.7Z" fill="#fff"/><path d="M1244.2,475.6h-52.9v56.9h-34.7V338.1h87.6C1334.8,338.1,1334.8,475.6,1244.2,475.6Zm-52.9-34h52.9c45.3,0,44.6-68.7,0-68.7h-52.9Z" fill="#fff"/><path d="M1474.6,532.4h-139V338.1h139v35.5H1370.4v45h100.5v34H1370.4v44.2h104.2Z" fill="#fff"/><path d="M1650.5,339.7l-82.3,93.2,89.1,98v2.4h-43.1l-77.8-86.1v85.3h-34.7V338.1h34.7v82.2l71-82.2h43.8v1.6Z" fill="#fff"/><path d="M1723.1,371.3h-58.9V338.1h152.6v33.2h-58.9V532.5h-34.7l-.1-161.2Z" fill="#fff"/><path d="M1970.1,496.1h-97.4l-15.9,36.3H1819l83.1-194.3h38.5l83.1,194.3h-38.5Zm-48.4-116.9L1887,462.1h68.7Z" fill="#fff"/><path d="M2186.8,339.7l-82.3,93.2,89.1,98v2.4h-43.1l-77.8-86.1v85.3H2038V338.1h34.7v82.2l71-82.2h43.8l-.7,1.6Z" fill="#fff"/><path d="M2350,532.4H2211V338.1h139v35.5H2245.8v45h100.5v34H2245.8v44.2H2350Z" fill="#fff"/><path d="M2411.9,338.1V498.5h95.9v34H2377.1V338.1Z" fill="#fff"/><path d="M1185.3,628.8c-21.9-22.9-52.9-34.8-82.3-34.8-74.8,0-112.5,56.9-112.5,118.5,0,63.2,38.5,116.9,112.5,116.9,27.2,0,55.9-9.5,77.8-30.8v-75h-89.1V706.2H1199V806.5c-26.4,27.6-58.2,43.4-96.7,43.4-86.9,0-131.4-63.2-131.4-135.9,0-83.7,53.6-138.2,131.4-138.2,33.2,0,67.2,13.4,93.7,40.3Z" fill="#fff"/><path d="M1455.7,846.1l-27.9-65.6H1275.2l-27.9,65.6h-21.1l114.1-267h21.1l114.1,267Zm-36.3-84.6-68.7-162.7L1282,761.5Z" fill="#fff"/><path d="M1685.3,579V744.9c0,139.8-195.6,139.8-195.6,0V579h19.6V744.9c0,114.5,157.1,114.5,157.1,0V579Z" fill="#fff"/><path d="M1811.4,598h-92.1V579.8h203.9V598h-92.1V846h-19.6V598Z" fill="#fff"/><path d="M1961,846.1V579h19.6V846H1961Z" fill="#fff"/><path d="M2045.6,579,2217,799.4V579h19.6V846H2229L2056.8,625.6V846h-19.6V579Z" fill="#fff"/><path d="M2494.2,628.8c-21.9-22.9-52.9-34.8-82.3-34.8-74.8,0-112.5,56.9-112.5,118.5,0,63.2,38.5,116.9,112.5,116.9,27.2,0,55.9-9.5,77.8-30.8v-75h-89.1V706.2h107.3V806.5c-26.4,27.6-58.2,43.4-96.7,43.4-86.9,0-131.4-63.2-131.4-135.9,0-83.7,53.6-138.2,131.4-138.2,33.2,0,67.2,13.4,93.7,40.3Z" fill="#fff"/></svg>